name analog
datacolumns 19
datarows 32
range 0.0 0.0155
endheader
time	ground_force_vx	ground_force_vy	ground_force_vz	ground_force_px	ground_force_py	ground_force_pz	l_ground_force_vx	l_ground_force_vy	l_ground_force_vz	l_ground_force_px	l_ground_force_py	l_ground_force_pz	ground_torque_x	ground_torque_y	ground_torque_z	l_ground_torque_x	l_ground_torque_y	l_ground_torque_z
0.0	-0.0	-0.0	-0.0	7.854616165161133	23.89103507995605	-166.10690307617188	-4.733916282653809	-18.99315643310547	-593.5735473632812	-0.0	-0.0	-0.0	-0.0	-0.0	-0.0	211145.859375	-19810.23828125	-1194.7525634765625
0.0005	-0.0	-0.0	-0.0	7.65886926651001	24.152387619018555	-166.53543090820312	-4.623217105865479	-18.38496971130371	-592.3788452148438	-0.0	-0.0	-0.0	-0.0	-0.0	-0.0	211053.625	-19824.333984375	-1174.3125
0.001	-0.0	-0.0	-0.0	7.911274909973144	24.39495086669922	-167.231201171875	-4.53837776184082	-18.71009826660156	-591.70751953125	-0.0	-0.0	-0.0	-0.0	-0.0	-0.0	210705.96875	-19762.74609375	-1247.9232177734375
0.0015	-0.0	-0.0	-0.0	8.024641990661621	24.503589630126957	-166.80703735351562	-4.671555995941162	-18.542524337768555	-591.0265502929688	-0.0	-0.0	-0.0	-0.0	-0.0	-0.0	210485.53125	-19701.0703125	-1250.2703857421875
0.002	-0.0	-0.0	-0.0	7.640115737915039	24.332599639892575	-166.4610137939453	-5.151828765869141	-18.31093406677246	-587.8333129882812	-0.0	-0.0	-0.0	-0.0	-0.0	-0.0	210285.203125	-19681.43359375	-1305.1168212890625
0.0025	-0.0	-0.0	-0.0	8.293404579162598	24.434513092041016	-166.8743133544922	-4.884618759155273	-18.28650665283203	-588.9686889648438	-0.0	-0.0	-0.0	-0.0	-0.0	-0.0	210197.53125	-19568.169921875	-1304.0635986328125
0.003	-0.0	-0.0	-0.0	8.046477317810059	24.631813049316406	-168.23333740234375	-5.130975723266602	-18.07899284362793	-588.5576171875	-0.0	-0.0	-0.0	-0.0	-0.0	-0.0	209919.484375	-19683.056640625	-1397.19140625
0.0035	-0.0	-0.0	-0.0	7.89002799987793	24.44765853881836	-167.56661987304688	-5.306241035461426	-18.04686164855957	-587.7830200195312	-0.0	-0.0	-0.0	-0.0	-0.0	-0.0	209820.359375	-19559.12109375	-1432.218994140625
0.004	-0.0	-0.0	-0.0	7.879376411437988	24.74677276611328	-168.12416076660156	-5.35135555267334	-17.814971923828125	-587.1498413085938	-0.0	-0.0	-0.0	-0.0	-0.0	-0.0	209929.484375	-19244.39453125	-1442.6690673828125
0.0045000000000000005	-0.0	-0.0	-0.0	8.067024230957031	24.56140899658203	-168.96829223632812	-5.495384693145752	-17.806415557861328	-587.5794067382812	-0.0	-0.0	-0.0	-0.0	-0.0	-0.0	209789.234375	-19513.03125	-1597.241455078125
0.005	-0.0	-0.0	-0.0	8.161544799804688	24.85068702697754	-168.23231506347656	-5.734042167663574	-17.62120246887207	-587.7359619140625	-0.0	-0.0	-0.0	-0.0	-0.0	-0.0	209994.171875	-19394.3984375	-1694.2415771484375
0.0055	-0.0	-0.0	-0.0	8.10415267944336	24.83052062988281	-169.62294006347656	-5.8032965660095215	-17.347103118896484	-588.743408203125	-0.0	-0.0	-0.0	-0.0	-0.0	-0.0	210080.75	-19193.384765625	-1738.700439453125
0.006	-0.0	-0.0	-0.0	7.937835216522217	24.807329177856445	-167.63772583007812	-6.0631256103515625	-17.725650787353516	-589.8383178710938	-0.0	-0.0	-0.0	-0.0	-0.0	-0.0	210234.8125	-19189.9765625	-1698.4388427734375
0.006500000000000001	-0.0	-0.0	-0.0	7.948317527770996	24.7259578704834	-167.88436889648438	-6.015286445617676	-17.43549346923828	-589.2821044921875	-0.0	-0.0	-0.0	-0.0	-0.0	-0.0	210027.15625	-19321.294921875	-1798.2615966796875
0.007	-0.0	-0.0	-0.0	7.896669387817383	24.57005882263184	-168.1200408935547	-5.841126441955566	-17.265422821044922	-588.84765625	-0.0	-0.0	-0.0	-0.0	-0.0	-0.0	210341.15625	-19361.28515625	-1763.3109130859375
0.0075	-0.0	-0.0	-0.0	7.773923397064209	24.593692779541016	-167.46937561035156	-5.950267314910889	-17.185455322265625	-589.7208862304688	-0.0	-0.0	-0.0	-0.0	-0.0	-0.0	210463.0	-19226.71484375	-1751.24951171875
0.008	-0.0	-0.0	-0.0	7.81629467010498	24.332599639892575	-167.8814239501953	-5.85607385635376	-16.98797607421875	-588.3067626953125	-0.0	-0.0	-0.0	-0.0	-0.0	-0.0	210259.484375	-19411.017578125	-1708.699951171875
0.0085	-0.0	-0.0	-0.0	7.953251361846924	24.38562774658203	-167.49874877929688	-6.039838790893555	-17.001924514770508	-588.497314453125	-0.0	-0.0	-0.0	-0.0	-0.0	-0.0	210154.453125	-19245.130859375	-1753.54638671875
0.009000000000000001	-0.0	-0.0	-0.0	7.968896389007568	24.33257293701172	-166.69961547851562	-5.944124221801758	-16.73695945739746	-589.1324462890625	-0.0	-0.0	-0.0	-0.0	-0.0	-0.0	210012.890625	-19308.111328125	-1862.749267578125
0.0095	-0.0	-0.0	-0.0	7.782207489013672	24.16894149780273	-164.75430297851562	-6.091639041900635	-16.471561431884766	-589.072998046875	-0.0	-0.0	-0.0	-0.0	-0.0	-0.0	210103.046875	-19398.8828125	-1860.033447265625
0.01	-0.0	-0.0	-0.0	8.178336143493652	23.9465446472168	-164.69677734375	-5.677490234375	-16.692798614501953	-589.367919921875	-0.0	-0.0	-0.0	-0.0	-0.0	-0.0	210242.34375	-19127.771484375	-1906.6190185546875
0.0105	-0.0	-0.0	-0.0	8.155377388000488	24.08008575439453	-164.7001190185547	-5.818036079406738	-16.53073501586914	-591.0849609375	-0.0	-0.0	-0.0	-0.0	-0.0	-0.0	210306.15625	-19426.6875	-1827.8052978515625
0.011	-0.0	-0.0	-0.0	7.895022392272949	24.05045509338379	-163.64076232910156	-6.032487869262695	-16.575109481811523	-591.054931640625	-0.0	-0.0	-0.0	-0.0	-0.0	-0.0	210281.15625	-19380.296875	-1813.02880859375
0.0115	-0.0	-0.0	-0.0	8.036352157592773	23.998313903808597	-164.0816650390625	-5.8919830322265625	-16.59716033935547	-592.3350219726562	-0.0	-0.0	-0.0	-0.0	-0.0	-0.0	210552.890625	-19488.4765625	-1768.445556640625
0.012	-0.0	-0.0	-0.0	7.582683086395264	23.58977699279785	-164.4646759033203	-5.825253009796143	-16.66326904296875	-594.0226440429688	-0.0	-0.0	-0.0	-0.0	-0.0	-0.0	210618.0625	-19522.78515625	-1738.807373046875
0.0125	-0.0	-0.0	-0.0	8.311444282531738	23.663801193237305	-162.81578063964844	-5.773524761199951	-16.817951202392578	-594.3741455078125	-0.0	-0.0	-0.0	-0.0	-0.0	-0.0	210951.71875	-19554.02734375	-1763.529541015625
0.013000000000000001	-0.0	-0.0	-0.0	8.014235496520996	23.322559356689453	-163.051513671875	-5.619077682495117	-16.767173767089844	-594.7789306640625	-0.0	-0.0	-0.0	-0.0	-0.0	-0.0	211306.078125	-19540.5859375	-1748.679931640625
0.0135	-0.0	-0.0	-0.0	8.051847457885742	23.53730773925781	-162.40744018554688	-5.552722930908203	-16.891056060791016	-596.322265625	-0.0	-0.0	-0.0	-0.0	-0.0	-0.0	211275.609375	-19705.353515625	-1703.645263671875
0.014	-0.0	-0.0	-0.0	8.325708389282227	23.44220352172852	-162.92767333984375	-5.557928562164307	-16.634235382080078	-596.0018310546875	-0.0	-0.0	-0.0	-0.0	-0.0	-0.0	211189.96875	-19663.87109375	-1698.3857421875
0.0145	-0.0	-0.0	-0.0	8.059882164001465	23.1070556640625	-161.6627197265625	-5.633690357208252	-16.8846492767334	-596.4939575195312	-0.0	-0.0	-0.0	-0.0	-0.0	-0.0	211550.53125	-19594.765625	-1649.7154541015625
0.015	-0.0	-0.0	-0.0	8.266264915466309	23.07038116455078	-160.87106323242188	-5.545856952667236	-16.840896606445312	-597.7529296875	-0.0	-0.0	-0.0	-0.0	-0.0	-0.0	211642.234375	-19797.435546875	-1629.5042724609375
0.0155	-0.0	-0.0	-0.0	8.249038696289062	22.5647029876709	-159.63584899902344	-5.65641450881958	-16.97233772277832	-598.3834838867188	-0.0	-0.0	-0.0	-0.0	-0.0	-0.0	211860.078125	-19809.701171875	-1536.9342041015625
